<?xml version="1.0" encoding="utf-8" ?>
<svg baseProfile="full" height="200mm" version="1.1" viewBox="0,0,200,200" width="200mm" xmlns="http://www.w3.org/2000/svg" xmlns:ev="http://www.w3.org/2001/xml-events" xmlns:xlink="http://www.w3.org/1999/xlink"><defs /><rect fill="#1a1a1a" height="200" width="200" x="0" y="0" /><text alignment-baseline="middle" fill="#e1ed5e" style="dominant-baseline: central; font-size:9.0px; font-family:Arial;" text-anchor="middle" x="100.0" y="100.0">2020</text><line stroke="#e1ed5e" stroke-width="0.3" x1="100.0" x2="100.0" y1="15.0" y2="10.0" /><path d="M 100.0 14.0 a86.0,86.0 0 0,1 42.35913384403234,11.155469271406648" fill="none" id="id13" stroke="none" /><text fill="#e1ed5e" style="font-size:6.75px; font-family:Arial;" text-anchor="middle"><textPath startOffset="22.145653131862478" xlink:href="#id13">January</textPath></text><path d="M 101.08105385017728 79.02784411241856 l 2.081036666941471 -40.37155538524975 a61.4251555078449,61.4251555078449 0 0,0 1.0525804347923702,0.06332062516931354 l -2.7737614538663036 40.329882782255744" fill="#63ff29" stroke="none" /><path d="M 107.40779381753099 80.34994680014964 l 7.16112578508102 -18.995736937851614 a41.300732605544376,41.300732605544376 0 0,0 0.6612596133962881,0.2557894239360987 l -7.486157660970834 18.87000762577748" fill="#ff6309" stroke="none" /><path d="M 107.74402155503746 80.48000691201159 l 11.526331969195255 -29.053886119698777 a52.25675330741371,52.25675330741371 0 0,0 0.8309956971277401,0.33795871566375846 l -12.023382127513434 28.851740147455725" fill="#e7ff1a" stroke="none" /><line stroke="#e1ed5e" stroke-width="0.3" x1="143.13028292997686" x2="145.6673583964461" y1="26.7553504044142" y2="22.446841604673864" /><path d="M 143.63769802327073 25.89364864446614 a86.0,86.0 0 0,1 29.32050498858742,28.57503671076993" fill="none" id="id14" stroke="none" /><text fill="#e1ed5e" style="font-size:6.75px; font-family:Arial;" text-anchor="middle"><textPath startOffset="20.669276256404974" xlink:href="#id14">February</textPath></text><path d="M 116.57777611688842 87.10902102172516 l 20.58254442100011 -16.005111034176643 a47.07306491494174,47.07306491494174 0 0,0 0.49056415126225517,0.6421642213231042 l -20.854260549616676 15.649425899612657" fill="#ffc512" stroke="none" /><path d="M 117.62189284568427 88.57770195909679 l 16.111844985831357 -10.443503262027223 a40.20047679698169,40.20047679698169 0 0,0 0.3703848118295175,0.5823064434780558 l -16.288747489286763 10.165383143870494" fill="#ff4f07" stroke="none" /><path d="M 117.81537515405839 88.88188828441811 l 22.168146435065072 -13.834562924502098 a47.130860063887994,47.130860063887994 0 0,0 0.42245417746634395,0.6900471502272884 l -22.40236857698682 13.451978658150255" fill="#ffc612" stroke="none" /><line stroke="#e1ed5e" stroke-width="0.3" x1="172.87174338648825" x2="177.1583165268699" y1="56.24261187166439" y2="53.66864786411523" /><path d="M 173.72905801456457 55.72781907015455 a86.0,86.0 0 0,1 12.242430191666344,42.057860355516425" fill="none" id="id15" stroke="none" /><text fill="#e1ed5e" style="font-size:6.75px; font-family:Arial;" text-anchor="middle"><textPath startOffset="22.145653131862474" xlink:href="#id15">March</textPath></text><path d="M 119.0197475246899 91.09779779509293 l 32.791639473792465 -15.348143020677275 a57.205760778670964,57.205760778670964 0 0,0 0.408654896027916,0.8929846982875919 l -33.05027883467543 14.782969340174999" fill="#9eff22" stroke="none" /><path d="M 119.16976305983485 91.42560881287824 l 57.50928917950454 -25.72317356136528 a84.0,84.0 0 0,0 0.5774644719321187,1.3213517208966026 l -57.94238753345363 24.732159770692828" fill="#4dd2ff" stroke="none" /><path d="M 120.05942366710727 93.78553927170692 l 29.72427621518094 -9.208656753138715 a52.118032645292644,52.118032645292644 0 0,0 0.2574225781019447,0.8568760403452688 l -29.87797511328651 8.697043109202724" fill="#e9ff1a" stroke="none" /><path d="M 120.592083275326 95.88100663000786 l 33.76130466616741 -6.753206473715886 a55.430095707656925,55.430095707656925 0 0,0 0.17862667122343065,0.9346502242875809 l -33.872257629673 6.17265368439499" fill="#b7ff1f" stroke="none" /><path d="M 120.65975698304385 96.23510406497455 l 34.42938020076127 -6.274179975576569 a55.99639346239121,55.99639346239121 0 0,0 0.16421657672181045,0.9471575756743398 l -34.532011594975316 5.682229366981637" fill="#afff20" stroke="none" /><path d="M 120.96210409425399 98.7389718711861 l 37.60235559928545 -2.262064337966916 a58.67033423908283,58.67033423908283 0 0,0 0.05184895950138096,1.0058559627659422 l -37.63564614824341 1.6162365818242428" fill="#89ff24" stroke="none" /><line stroke="#e1ed5e" stroke-width="0.3" x1="184.99686870605535" x2="189.99668451229388" y1="99.2704041080226" y2="99.22748670261217" /><path d="M 185.99683186730306 99.26182062694052 a86.0,86.0 0 0,1 -10.086455211305974,41.156179273409016" fill="none" id="id16" stroke="none" /><text fill="#e1ed5e" style="font-size:6.75px; font-family:Arial;" text-anchor="middle"><textPath startOffset="21.40746469413373" xlink:href="#id16">April</textPath></text><path d="M 120.99303781780057 100.54070618675476 l 32.03774138613197 0.8251785724142195 a53.048366460726896,53.048366460726896 0 0,0 -0.03126143520273917,0.9101425767098685 l -32.01885526393238 -1.3750274136881988" fill="#dbff1b" stroke="none" /><path d="M 120.98066250479742 100.90099992219065 l 32.84595253843028 1.4105465294356783 a53.87622605574609,53.87622605574609 0 0,0 -0.04761224388919202,0.9236648117371486 l -32.81689870508452 -1.9741831345495575" fill="#ceff1d" stroke="none" /><path d="M 120.7213421655516 103.40968896794604 l 16.43016689471622 2.7035777101137777 a37.65111757879491,37.65111757879491 0 0,0 -0.11041671179578234,0.6368542515387654 l -16.381335365428203 -2.985224994573131" fill="#ff2103" stroke="none" /><path d="M 120.16314734710363 105.8691983318838 l 31.20863603511163 9.084379110285944 a53.5039214094464,53.5039214094464 0 0,0 -0.264267791563065,0.8796615296723361 l -31.048091923544938 -9.618778243549004" fill="#d4ff1c" stroke="none" /><path d="M 120.05942366710727 106.21446072829308 l 31.251055446367367 9.681656861738032 a53.716401790239196,53.716401790239196 0 0,0 -0.28043871322362146,0.8784702749258925 l -31.08025201736649 -10.21669617035531" fill="#d1ff1d" stroke="none" /><path d="M 119.31412917781788 108.2440532568976 l 31.565048490620665 13.473242226840714 a55.32026431014711,55.32026431014711 0 0,0 -0.3803034192500639,0.8702086481746288 l -31.329111189353632 -14.013112944791187" fill="#b9ff1f" stroke="none" /><path d="M 119.16976305983485 108.57439118712176 l 36.42640492250463 16.293067596670824 a60.90422317609947,60.90422317609947 0 0,0 -0.43507522058807896,0.9507178755609953 l -36.14134523706149 -16.91597445444651" fill="#6aff28" stroke="none" /><line stroke="#e1ed5e" stroke-width="0.3" x1="174.33088141563837" x2="178.70328620479359" y1="141.23008692659167" y2="143.65538615756765" /><path d="M 175.20536237346943 141.71514677278685 a86.0,86.0 0 0,1 -30.301960400862466,31.631185727798858" fill="none" id="id17" stroke="none" /><text fill="#e1ed5e" style="font-size:6.75px; font-family:Arial;" text-anchor="middle"><textPath startOffset="22.145653131862474" xlink:href="#id17">May</textPath></text><path d="M 118.36410011445183 110.18625677009912 l 16.690174191815697 9.257758278159496 a40.08580632014224,40.08580632014224 0 0,0 -0.33894770184154394,0.5988881118124965 l -16.528793124952774 -9.542903160071116" fill="#ff4d07" stroke="none" /><path d="M 118.18653347947321 110.5 l 33.53180437552497 19.359596282623205 a59.71919256524642,59.71919256524642 0 0,0 -0.5202004919050776,0.8834141619450642 l -33.19453017349013 -19.93236161286182" fill="#7aff26" stroke="none" /><path d="M 118.00360718960297 110.81064883170644 l 27.655099119911156 16.606092425969358 a53.257817858496686,53.257817858496686 0 0,0 -0.47737273638895866,0.7797524889374504 l -27.365958419066793 -17.078382031031367" fill="#d7ff1c" stroke="none" /><path d="M 117.01052211995028 112.31430620078461 l 16.89303462211514 12.229254312729442 a41.85495815841865,41.85495815841865 0 0,0 -0.42631862002329174,0.5783830849232486 l -16.68061398250802 -12.517443706921568" fill="#ff6d0a" stroke="none" /><path d="M 116.79662413953412 112.60449989151573 l 16.73024550728202 12.554688128385832 a41.91701003334278,41.91701003334278 0 0,0 -0.4368311790960404,0.5718260359059535 l -16.512262350831676 -12.840035077532663" fill="#ff6e0a" stroke="none" /><path d="M 114.91283532996324 114.78537596483092 l 14.457850933995116 14.334280301016808 a41.35929874474418,41.35929874474418 0 0,0 -0.5042054598291958,0.4998960373495567 l -14.209653554035956 -14.580356348595025" fill="#ff6409" stroke="none" /><line stroke="#e1ed5e" stroke-width="0.3" x1="143.1302829299769" x2="145.66735839644613" y1="173.24464959558577" y2="177.55315839532614" /><path d="M 143.63769802327073 174.10635135553383 a86.0,86.0 0 0,1 -40.68552437913181,11.842963189579606" fill="none" id="id18" stroke="none" /><text fill="#e1ed5e" style="font-size:6.75px; font-family:Arial;" text-anchor="middle"><textPath startOffset="21.407464694133747" xlink:href="#id18">June</textPath></text><path d="M 107.06938296918513 119.77432235084164 l 10.865067058742211 30.391526292972177 a53.27529322263989,53.27529322263989 0 0,0 -0.8638061826151358,0.30047663022178184 l -10.341755104082054 -30.57356135576255" fill="#d7ff1c" stroke="none" /><path d="M 102.51750503828377 120.84855314841334 l 3.9256220098446954 32.50978165613632 a53.74593732806918,53.74593732806918 0 0,0 -0.9169161799743167,0.10274237047025449 l -3.3669699282695795 -32.57237978711355" fill="#d0ff1d" stroke="none" /><line stroke="#e1ed5e" stroke-width="0.3" x1="101.45913802915013" x2="101.54496967792366" y1="184.9874750549273" y2="189.98673829345242" /><path d="M 101.47630435890484 185.9873277026323 a86.0,86.0 0 0,1 -42.54439059252881,-10.42667462771756" fill="none" id="id19" stroke="none" /><text fill="#e1ed5e" style="font-size:6.75px; font-family:Arial;" text-anchor="middle"><textPath startOffset="22.145653131862474" xlink:href="#id19">July</textPath></text><path d="M 98.55909050195518 120.95050786540614 l -1.3310032383128092 19.352494970011055 a40.398212061545834,40.398212061545834 0 0,0 -0.6914461890745047,-0.05352230804569344 l 1.6630184221625501 -19.326794894970305" fill="#ff5307" stroke="none" /><path d="M 98.19965949673042 120.92268563240118 l -1.6986078972392868 19.74039854244723 a40.81334407421464,40.81334407421464 0 0,0 -0.6975203337120588,-0.06605590081168901 l 2.037227794336361 -19.70833088613036" fill="#ff5a08" stroke="none" /><path d="M 97.84075906011543 120.88869738790638 l -1.6568872347279853 16.02888098906095 a37.114288723678875,37.114288723678875 0 0,0 -0.6331770089198302,-0.07094880453032361 l 1.9318001452486147 -15.998076424023658" fill="#ff1702" stroke="none" /><path d="M 91.59046798132341 119.24265499422711 l -5.963669912581928 13.646043843153814 a35.89227556136103,35.89227556136103 0 0,0 -0.5624603251550548,-0.25158134923534403 l 6.197043640592617 -13.541658743008615" fill="#ff0000" stroke="none" /><line stroke="#e1ed5e" stroke-width="0.3" x1="58.13341422392154" x2="55.67067388415222" y1="173.97424548756322" y2="178.32567169271397" /><path d="M 57.64086615596768 174.84453072859336 a86.0,86.0 0 0,1 -31.369924170532247,-30.572349798747897" fill="none" id="id20" stroke="none" /><text fill="#e1ed5e" style="font-size:6.75px; font-family:Arial;" text-anchor="middle"><textPath startOffset="22.145653131862474" xlink:href="#id20">August</textPath></text><path d="M 89.65649057296885 118.27599006163327 l -10.19402310849766 18.01186206028698 a41.69650410130633,41.69650410130633 0 0,0 -0.6199029830627415,-0.35790115414272855 l 10.501718559420802 -17.83421400886808" fill="#ff6a09" stroke="none" /><path d="M 82.18462484594161 111.11811171558189 l -27.258898184330786 17.01156852641538 a53.13161984638556,53.13161984638556 0 0,0 -0.4762415693079416,-0.7779048125211154 l 27.546907718094133 -16.541126597769708" fill="#d9ff1c" stroke="none" /><line stroke="#e1ed5e" stroke-width="0.3" x1="26.387840678322732" x2="22.057713659400548" y1="142.50000000000003" y2="145.00000000000006" /><path d="M 25.521815274538298 143.00000000000003 a86.0,86.0 0 0,1 -11.493303480769221,-40.785679425670985" fill="none" id="id21" stroke="none" /><text fill="#e1ed5e" style="font-size:6.75px; font-family:Arial;" text-anchor="middle"><textPath startOffset="21.40746469413373" xlink:href="#id21">September</textPath></text><path d="M 80.5471966667186 107.91128576633889 l -16.2077363736553 6.591545284277696 a38.496833644765346,38.496833644765346 0 0,0 -0.2437057178258946,-0.614297609279022 l 16.31850076644732 -6.312346657785109" fill="#ff3004" stroke="none" /><line stroke="#e1ed5e" stroke-width="0.3" x1="15.003131293944662" x2="10.003315487706104" y1="100.72959589197737" y2="100.7725132973878" /><path d="M 14.003168132696942 100.73817937305945 a86.0,86.0 0 0,1 10.791469493833604,-42.45332614584628" fill="none" id="id22" stroke="none" /><text fill="#e1ed5e" style="font-size:6.75px; font-family:Arial;" text-anchor="middle"><textPath startOffset="22.145653131862435" xlink:href="#id22">October</textPath></text><path d="M 79.00077361379809 100.18025310272382 l -19.98135579437323 0.17151590788749121 a40.98209190970733,40.98209190970733 0 0,0 0.0,-0.7035380212226102 l 19.98135579437323 0.1715159078874839" fill="#ff5d08" stroke="none" /><path d="M 79.00077361379809 99.81974689727619 l -19.94190307583005 -0.1711772537486357 a40.94263773772168,40.94263773772168 0 0,0 0.012065538770044201,-0.7027571448058877 l 19.93602610546134 0.5134813145235757" fill="#ff5c08" stroke="none" /><path d="M 80.68587082218212 91.75594674310238 l -15.850823629428167 -6.765774059167839 a38.23439318197617,38.23439318197617 0 0,0 0.26284528176754524,-0.6014414431957008 l 15.732344465643644 7.0368775721394075" fill="#ff2c04" stroke="none" /><path d="M 81.46374523516351 90.13048839642627 l -19.165926682740977 -10.204776433446044 a42.713364724630274,42.713364724630274 0 0,0 0.35015735099622575,-0.6442500867886821 l 18.9879239821294 10.532281353709347" fill="#ff7b0b" stroke="none" /><line stroke="#e1ed5e" stroke-width="0.3" x1="26.387840678322718" x2="22.05771365940052" y1="57.49999999999999" y2="54.99999999999999" /><path d="M 25.521815274538284 56.99999999999999 a86.0,86.0 0 0,1 29.574782752854787,-30.34633250058573" fill="none" id="id23" stroke="none" /><text fill="#e1ed5e" style="font-size:6.75px; font-family:Arial;" text-anchor="middle"><textPath startOffset="21.40746469413373" xlink:href="#id23">November</textPath></text><path d="M 82.37810715431573 88.57770195909679 l -14.426496534648228 -9.351080757772635 a38.19204797581146,38.19204797581146 0 0,0 0.3613250743028942,-0.5470922151697153 l 14.263847021424604 9.597352851281412" fill="#ff2b04" stroke="none" /><path d="M 82.576782715395 88.27688183743585 l -17.25679323411575 -11.611140634125595 a41.79941103854784,41.79941103854784 0 0,0 0.4056737602253015,-0.5918901398759188 l 17.054929737075135 11.905665509071548" fill="#ff6c09" stroke="none" /><path d="M 82.78059297857968 87.97951657250589 l -16.71074801345781 -11.665399935486937 a41.37966277503489,41.37966277503489 0 0,0 0.4115993705536255,-0.5789660606850274 l 16.50803354437421 11.950543222881484" fill="#ff6409" stroke="none" /><path d="M 86.96720088162412 83.53348406188908 l -9.729386409188201 -12.292761894031422 a36.677147536546535,36.677147536546535 0 0,0 0.4970453070498609,-0.3865054371136351 l 9.516931157503096 12.457968382765861" fill="#ff0f01" stroke="none" /><path d="M 87.25179093698888 83.31218511350988 l -13.883837112647601 -18.174388457614395 a43.87070896974552,43.87070896974552 0 0,0 0.6023803717043985,-0.4520374610234027 l 13.569803752032449 18.4100449459018" fill="#ff8f0d" stroke="none" /><path d="M 87.83215693770416 82.88440491214696 l -11.650219698142223 -16.387493002421138 a41.10665426965369,41.10665426965369 0 0,0 0.5786347041682155,-0.40393196254520775 l 11.367189902800243 16.585069780771473" fill="#ff5f08" stroke="none" /><line stroke="#e1ed5e" stroke-width="0.3" x1="56.869717070023135" x2="54.33264160355391" y1="26.7553504044142" y2="22.446841604673864" /><path d="M 56.362301976729285 25.89364864446614 a86.0,86.0 0 0,1 42.16139366436587,-11.88097634709845" fill="none" id="id24" stroke="none" /><text fill="#e1ed5e" style="font-size:6.75px; font-family:Arial;" text-anchor="middle"><textPath startOffset="22.145653131862474" xlink:href="#id24">December</textPath></text></svg>