<?xml version="1.0" encoding="utf-8" ?>
<svg baseProfile="full" height="200mm" version="1.1" viewBox="0,0,200,200" width="200mm" xmlns="http://www.w3.org/2000/svg" xmlns:ev="http://www.w3.org/2001/xml-events" xmlns:xlink="http://www.w3.org/1999/xlink"><defs /><rect fill="#1a1a1a" height="200" width="200" x="0" y="0" /><text alignment-baseline="middle" fill="#e1ed5e" style="dominant-baseline: central; font-size:9.0px; font-family:Arial;" text-anchor="middle" x="100.0" y="100.0">2021</text><line stroke="#e1ed5e" stroke-width="0.3" x1="100.0" x2="100.0" y1="15.0" y2="10.0" /><path d="M 100.0 14.0 a86.0,86.0 0 0,1 42.46469731375804,11.215312516191453" fill="none" id="id25" stroke="none" /><text fill="#e1ed5e" style="font-size:6.75px; font-family:Arial;" text-anchor="middle"><textPath startOffset="22.20632615414155" xlink:href="#id25">January</textPath></text><line stroke="#e1ed5e" stroke-width="0.3" x1="143.23703022742887" x2="145.7803849466894" y1="26.81831364943548" y2="22.513508569990506" /><path d="M 143.74570117128098 25.957352633546492 a86.0,86.0 0 0,1 28.547481713284135,27.462654790039103" fill="none" id="id26" stroke="none" /><text fill="#e1ed5e" style="font-size:6.75px; font-family:Arial;" text-anchor="middle"><textPath startOffset="19.985693538727396" xlink:href="#id26">February</textPath></text><path d="M 113.89432698308785 84.25364557470407 l 31.602503038467813 -35.814920303510455 a68.76428283396677,68.76428283396677 0 0,0 0.8808017394370827,0.7907924983653029 l -32.214315765500885 35.26562879637586" fill="#46ff2d" stroke="none" /><line stroke="#e1ed5e" stroke-width="0.3" x1="172.23445277983987" x2="176.4835382374775" y1="55.19839476539836" y2="52.563006222186495" /><path d="M 173.08426987136738 54.67131705675599 a86.0,86.0 0 0,1 12.851231095245387,41.99856678651699" fill="none" id="id27" stroke="none" /><text fill="#e1ed5e" style="font-size:6.75px; font-family:Arial;" text-anchor="middle"><textPath startOffset="22.20632615414155" xlink:href="#id27">March</textPath></text><path d="M 120.87857604477298 97.74499172005257 l 36.96192347391881 -3.9921038339842596 a58.176883676730384,58.176883676730384 0 0,0 0.09896407160873531,0.9965546955181742 l -37.02516467120977 3.3552736077616503" fill="#ffee16" stroke="none" /><path d="M 120.91429891909075 98.10471618934814 l 31.4078493182361 -2.8462244214129258 a52.536550100701746,52.536550100701746 0 0,0 0.07386517905077115,0.9013422780571254 l -31.452188981106367 2.305168226148032" fill="#ff710a" stroke="none" /><path d="M 120.96714384426684 98.82574320788733 l 30.31073751901358 -1.6975411467584436 a51.358235371830744,51.358235371830744 0 0,0 0.041835909271754075,0.8830899226766606 l -30.33546703651883 1.1755401174587832" fill="#ff5507" stroke="none" /><line stroke="#e1ed5e" stroke-width="0.3" x1="184.98032266829074" x2="189.97916517819016" y1="98.17113171792111" y2="98.06355123074" /><path d="M 185.9800911702706 98.14961562048488 a86.0,86.0 0 0,1 -9.607161424134198,41.387399972396054" fill="none" id="id28" stroke="none" /><text fill="#e1ed5e" style="font-size:6.75px; font-family:Arial;" text-anchor="middle"><textPath startOffset="21.466115282336823" xlink:href="#id28">April</textPath></text><path d="M 120.99513854157772 99.54816195383933 l 29.33438727110762 -0.631307681235315 a50.341179696114935,50.341179696114935 0 0,0 0.01118771082512242,0.8665005326956363 l -29.340907989050457 0.12627089047921597" fill="#ff3d05" stroke="none" /><path d="M 120.99980553446 99.90962569577887 l 39.93371291756331 -0.1718578543010276 a60.934082717704285,60.934082717704285 0 0,0 -0.0045140627450276265,1.048909207466798 l -39.930754557528786 -0.5155608313694552" fill="#d7ff1c" stroke="none" /><path d="M 120.99824983174949 100.27111621757518 l 61.064147822796095 0.7884219361051921 a82.06923741519641,82.06923741519641 0 0,0 -0.030396637338316115,1.4124122958186158 l -61.04152912277277 -1.8394240477139228" fill="#49f1ff" stroke="none" /><path d="M 120.76222939487914 103.15116336523771 l 52.96963290971332 8.039404801892164 a74.57624511066888,74.57624511066888 0 0,0 -0.20355140647933723,1.2675148024518235 l -52.823399748872696 -8.949998834037192" fill="#39ff89" stroke="none" /><path d="M 120.02730092923936 106.31721596034902 l 30.21089854869886 9.529430409151692 a52.678201259582906,52.678201259582906 0 0,0 -0.2802172992010052,0.8624201685826521 l -30.04238899848161 -10.048049477712139" fill="#ff740a" stroke="none" /><path d="M 119.26925614724726 108.34839909993367 l 33.201865056968686 14.38469748077503 a57.1840208500185,57.1840208500185 0 0,0 -0.3990870507849041,0.8998359436154973 l -32.949336921452506 -14.954081760883215" fill="#ffd914" stroke="none" /><path d="M 119.12269723197855 108.67885076344098 l 37.33668703487876 16.945283965231074 a62.00208345197596,62.00208345197596 0 0,0 -0.44944242429551395,0.9680589976574385 l -37.03946999374342 -17.58546303016734" fill="#c2ff1e" stroke="none" /><line stroke="#e1ed5e" stroke-width="0.3" x1="174.80103733775053" x2="179.2010983576182" y1="140.37084112569926" y2="142.7455964860345" /><path d="M 175.68104954172406 140.8457921977663 a86.0,86.0 0 0,1 -30.038265399797805,32.042727171017184" fill="none" id="id29" stroke="none" /><text fill="#e1ed5e" style="font-size:6.75px; font-family:Arial;" text-anchor="middle"><textPath startOffset="22.206326154141568" xlink:href="#id29">May</textPath></text><path d="M 117.35343817320211 111.8261652097733 l 28.201469757534213 19.21897189376874 a55.12758088611892,55.12758088611892 0 0,0 -0.5411404530576436,0.77955318279166 l -27.86646839731443 -19.70156633874742" fill="#ffac0f" stroke="none" /><path d="M 117.14729908036423 112.12312394758627 l 32.21723605639481 22.777554886622028 a60.45589063405546,60.45589063405546 0 0,0 -0.6080717034210973,0.8445584125977893 l -31.820384560598114 -23.32874690467095" fill="#e1ff1b" stroke="none" /><path d="M 116.71984013943494 112.70617746262583 l 24.04498610697056 18.272893640947565 a51.20033110576421,51.20033110576421 0 0,0 -0.5392935331796532,0.6971095891345583 l -23.726885756572837 -18.684081224195374" fill="#ff5107" stroke="none" /><path d="M 116.498646956653 112.99209946851258 l 22.304353769466843 17.563887724559983 a49.389687371904586,49.389687371904586 0 0,0 -0.5317201735237239,0.6634026721850504 l -21.998715683888268 -17.945218230323285" fill="#ff2503" stroke="none" /><path d="M 116.27256486870786 113.27417163493432 l 24.568065434111784 20.041137948561953 a52.70547349351667,52.70547349351667 0 0,0 -0.5795192693884677,0.6980682924147723 l -24.219450164829773 -20.461067498090497" fill="#ff750a" stroke="none" /><path d="M 116.0416608686014 113.55231037782055 l 21.524972682071553 18.184719964534157 a49.17815624118182,49.17815624118182 0 0,0 -0.5518667087491929,0.6419456593676365 l -21.20876346375158 -18.552542723063322" fill="#ff2003" stroke="none" /><path d="M 115.56566222782051 114.09645910891815 l 43.43232951871668 39.33286281719439 a79.59557444738144,79.59557444738144 0 0,0 -0.9284391365966671,1.0076373138192045 l -42.748843974124284 -40.074651385814924" fill="#44ffe4" stroke="none" /><path d="M 115.07121518719521 114.62390073753431 l 22.41609397284623 21.75078313928255 a52.234241405412284,52.234241405412284 0 0,0 -0.6316845380007984,0.639893101964337 l -22.038368809789894 -22.133416735227552" fill="#ff6a09" stroke="none" /><path d="M 114.81725581225074 114.88116024355365 l 22.740419113116538 22.838494868129967 a53.22923376814588,53.22923376814588 0 0,0 -0.6548464323333557,0.6409050609421925 l -22.34392272840739 -23.226550031994734" fill="#ff810b" stroke="none" /><path d="M 114.55890576462653 115.13401014063108 l 22.187575041936746 23.064026315531102 a53.00371534876983,53.00371534876983 0 0,0 -0.662960793631989,0.6268708103053808 l -21.78727841391395 -23.442531762582405" fill="#ff7c0b" stroke="none" /><path d="M 114.29624159901734 115.38237550388516 l 41.16987291976443 44.297687634390485 a81.47514833370468,81.47514833370468 0 0,0 -1.0355120855961841,0.9459157384375387 l -40.40126128470138 -44.999796139414606" fill="#48faff" stroke="none" /><path d="M 114.0293411484842 115.62618273729858 l 28.328343385056936 31.552719810200816 a63.403645673016584,63.403645673016584 0 0,0 -0.8183830006320136,0.7221278462978629 l -27.781018031518336 -32.03567079827097" fill="#a7ff21" stroke="none" /><path d="M 112.92097659922987 116.55440617244103 l 31.09000259084697 39.832633921943696 a71.52946651468281,71.52946651468281 0 0,0 -0.977130905202339,0.7492223111098393 l -30.399742957151137 -40.36189557488091" fill="#32ff4d" stroke="none" /><path d="M 112.34349029814194 116.9893568818739 l 28.429564484698442 39.1299385636083 a69.36726402001034,69.36726402001034 0 0,0 -0.9720423877609699,0.6935264343413429 l -27.751794769088587 -39.61350925979386" fill="#3bff2e" stroke="none" /><path d="M 111.7513745106137 117.40417183066458 l 15.041668724940108 22.277205689627824 a47.87983800860466,47.87983800860466 0 0,0 -0.6870193624868817,0.455318971435498 l -14.65597466371326 -22.53282268215464" fill="#ff0000" stroke="none" /><line stroke="#e1ed5e" stroke-width="0.3" x1="143.8653032363475" x2="146.44561519142675" y1="172.8068346515853" y2="177.08958963109032" /><path d="M 144.38136562736335 173.6633856474863 a86.0,86.0 0 0,1 -40.68145358897372,12.25698825130547" fill="none" id="id30" stroke="none" /><text fill="#e1ed5e" style="font-size:6.75px; font-family:Arial;" text-anchor="middle"><textPath startOffset="21.466115282336833" xlink:href="#id30">June</textPath></text><line stroke="#e1ed5e" stroke-width="0.3" x1="102.19456741930631" x2="102.32365962044197" y1="184.97166512339345" y2="189.96999836594603" /><path d="M 102.22038585953345 185.97133177190398 a86.0,86.0 0 0,1 -42.740103519485714,-10.115201625700543" fill="none" id="id31" stroke="none" /><text fill="#e1ed5e" style="font-size:6.75px; font-family:Arial;" text-anchor="middle"><textPath startOffset="22.20632615414155" xlink:href="#id31">July</textPath></text><path d="M 96.58105272829116 120.7198165907248 l -6.544414821021887 39.66106055722232 a61.19737665412094,61.19737665412094 0 0,0 -1.0378813637417872,-0.1804489787242171 l 7.226145156235724 -39.5425329999771" fill="#d2ff1c" stroke="none" /><path d="M 95.86986931433489 120.58985236759428 l -12.390392056995301 61.76955710278283 a84.0,84.0 0 0,0 -1.415234154282453,-0.29657607709383527 l 13.451817672707142 -61.54712504496245" fill="#4dd2ff" stroke="none" /><line stroke="#e1ed5e" stroke-width="0.3" x1="58.666819895761336" x2="56.23545636021788" y1="174.27360380694188" y2="178.64263932499728" /><path d="M 58.180547188652646 175.14741091055294 a86.0,86.0 0 0,1 -31.652253787137756,-30.449443065178592" fill="none" id="id32" stroke="none" /><text fill="#e1ed5e" style="font-size:6.75px; font-family:Arial;" text-anchor="middle"><textPath startOffset="22.20632615414155" xlink:href="#id32">August</textPath></text><line stroke="#e1ed5e" stroke-width="0.3" x1="26.63291911575756" x2="22.317208475507996" y1="142.92168965132927" y2="145.44649492493687" /><path d="M 25.769776987707644 143.4266507060508 a86.0,86.0 0 0,1 -11.730757126820373,-40.83630448921669" fill="none" id="id33" stroke="none" /><text fill="#e1ed5e" style="font-size:6.75px; font-family:Arial;" text-anchor="middle"><textPath startOffset="21.46611528233685" xlink:href="#id33">September</textPath></text><line stroke="#e1ed5e" stroke-width="0.3" x1="15.007084014347285" x2="10.007500721073583" y1="101.09737516637583" y2="101.16192664675087" /><path d="M 14.007167355692545 101.11028546245083 a86.0,86.0 0 0,1 10.666146001902534,-42.60595125391555" fill="none" id="id34" stroke="none" /><text fill="#e1ed5e" style="font-size:6.75px; font-family:Arial;" text-anchor="middle"><textPath startOffset="22.20632615414155" xlink:href="#id34">October</textPath></text><line stroke="#e1ed5e" stroke-width="0.3" x1="26.266209847984243" x2="21.928928074336255" y1="57.711370442889674" y2="55.22380399835377" /><path d="M 25.398753493254645 57.213857153982495 a86.0,86.0 0 0,1 29.58750427330803,-30.492523968695096" fill="none" id="id35" stroke="none" /><text fill="#e1ed5e" style="font-size:6.75px; font-family:Arial;" text-anchor="middle"><textPath startOffset="21.46611528233685" xlink:href="#id35">November</textPath></text><line stroke="#e1ed5e" stroke-width="0.3" x1="56.762969772571076" x2="54.21961505331055" y1="26.818313649435495" y2="22.513508569990535" /><path d="M 56.25429882871897 25.957352633546506 a86.0,86.0 0 0,1 42.265352541879196,-11.944610805530505" fill="none" id="id36" stroke="none" /><text fill="#e1ed5e" style="font-size:6.75px; font-family:Arial;" text-anchor="middle"><textPath startOffset="22.20632615414155" xlink:href="#id36">December</textPath></text><path d="M 92.57280143429618 80.3572730644239 l -10.526731201082875 -27.84006710981017 a50.76375995163558,50.76375995163558 0 0,0 0.8199983136111144,-0.30201229915341105 l 10.04595056169919 28.017142676769907" fill="#ff4706" stroke="none" /></svg>