<?xml version="1.0" encoding="utf-8" ?>
<svg baseProfile="full" height="300mm" version="1.1" viewBox="0,0,200,300" width="200mm" xmlns="http://www.w3.org/2000/svg" xmlns:ev="http://www.w3.org/2001/xml-events" xmlns:xlink="http://www.w3.org/1999/xlink"><defs /><rect fill="#222222" height="300" width="200" x="0" y="0" /><text fill="#FFFFFF" style="font-size:12px; font-family:Arial; font-weight:bold;" x="10" y="20">Over 10km Runs</text><text fill="#FFFFFF" style="font-size:4px; font-family:Arial" x="10" y="280">ATHLETE</text><text fill="#FFFFFF" style="font-size:9px; font-family:Arial" x="10" y="290">Ricky</text><text fill="#FFFFFF" style="font-size:4px; font-family:Arial" x="120" y="280">STATISTICS</text><text fill="#FFFFFF" style="font-size:3px; font-family:Arial" x="120" y="285">Number: 1</text><text fill="#FFFFFF" style="font-size:3px; font-family:Arial" x="120" y="290">Weekly: 1.0</text><text fill="#FFFFFF" style="font-size:3px; font-family:Arial" x="141" y="285">Total: 10.3 km</text><text fill="#FFFFFF" style="font-size:3px; font-family:Arial" x="141" y="290">Avg: 10.3 km</text><text fill="#FFFFFF" style="font-size:3px; font-family:Arial" x="167" y="285">Min: 10.3 km</text><text fill="#FFFFFF" style="font-size:3px; font-family:Arial" x="167" y="290">Max: 10.3 km</text><polyline fill="none" points="136.0682709775865,170.59358499012887 146.64000557735562,79.29670298565179 55.84746139124036,71.74578869575635 47.141327012330294,156.8647938319482 52.116260942071676,226.19496013596654 124.87466964125633,224.13565649697557 150.37120602279902,86.84761050343513 142.28693839162588,76.55091675557196 55.22559464722872,70.37289445986971 49.006927236914635,216.5848721731454 58.95679509267211,224.8220910988748 126.11840312555432,226.19496013596654 148.50560579821467,81.35604207217693 53.35999442264438,69.0 50.250660721212626,218.64417766127735 76.36906384304166,228.94069753820077 127.36213660612702,224.13565649697557 150.37120602279902,86.16116464417428 148.50560579821467,78.61025651264936 104.97493392974138,73.1186827076599 49.628793977200985,75.17802330339327 49.006927236914635,210.4069526907988 58.33492835238576,226.88139457069337 124.87466964125633,227.56782894860953 152.23680624365807,89.59339337237179 147.8837390616536,76.55091675557196 134.20267075300217,74.49157649325207 51.494394201785326,73.80512962862849 49.628793977200985,211.77982407761738 59.57866183295846,227.56782894860953 127.36213660612702,225.50852564396337 152.23680624365807,88.90694773988798 145.39627209305763,75.8644700567238 62.06612879782915,70.37289445986971 50.872527457773685,77.23736339854077 50.872527457773685,223.44922183733433 77.61279732361436,230.31356590148062 118.65600223094225,231.0 133.58080401271582,210.4069526907988 149.12747254222631,84.10182673530653 54.60372790321708,71.74578869575635 49.006927236914635,208.34764518868178 57.09119487181306,225.50852564396337 125.49653638526797,227.56782894860953 150.99307276308537,85.47471873136237 120.52160245552659,75.8644700567238 49.628793977200985,76.55091675557196 54.60372790321708,227.56782894860953 126.74026986584067,230.31356590148062 150.99307276308537,88.90694773988798 150.37120602279902,80.66959576448426 129.22773682698607,76.55091675557196 52.73812768235803,72.43223572894931 48.385060492902994,218.64417766127735 56.46932812780142,226.88139457069337 125.49653638526797,226.88139457069337 149.74933928251266,93.02562070079148 148.50560579821467,78.61025651264936 52.73812768235803,74.49157649325207 49.006927236914635,218.64417766127735 56.46932812780142,227.56782894860953 126.11840312555432,228.25426327157766 152.8586729876697,84.7882727603428 149.74933928251266,77.23736339854077 58.33492835238576,71.05934160528705 49.006927236914635,79.98314940417185 49.628793977200985,220.01704770652577 124.87466964125633,228.94069753820077 148.50560579821467,77.23736339854077 52.73812768235803,77.23736339854077 51.494394201785326,222.7627871236764 114.30293504521251,226.88139457069337 129.84960357099771,208.34764518868178 150.37120602279902,84.10182673530653 84.45333147421479,72.43223572894931 49.628793977200985,77.92380998330191 49.628793977200985,220.01704770652577 123.63093615695834,229.62713174754754 151.61493950337172,82.72893451573327 52.73812768235803,73.1186827076599 52.73812768235803,121.16983199166134" stroke="#4DD2FF" stroke-linecap="round" stroke-linejoin="round" stroke-width="0.5"><title>2023-02-23 10.3km</title></polyline></svg>