<?xml version="1.0" encoding="utf-8" ?>
<svg baseProfile="full" height="200mm" version="1.1" viewBox="0,0,200,200" width="200mm" xmlns="http://www.w3.org/2000/svg" xmlns:ev="http://www.w3.org/2001/xml-events" xmlns:xlink="http://www.w3.org/1999/xlink"><defs /><rect fill="#1a1a1a" height="200" width="200" x="0" y="0" /><text alignment-baseline="middle" fill="#e1ed5e" style="dominant-baseline: central; font-size:9.0px; font-family:Arial;" text-anchor="middle" x="100.0" y="100.0">2023</text><line stroke="#e1ed5e" stroke-width="0.3" x1="100.0" x2="100.0" y1="15.0" y2="10.0" /><path d="M 100.0 14.0 a86.0,86.0 0 0,1 42.46469731375804,11.215312516191453" fill="none" id="id49" stroke="none" /><text fill="#e1ed5e" style="font-size:6.75px; font-family:Arial;" text-anchor="middle"><textPath startOffset="22.20632615414155" xlink:href="#id49">January</textPath></text><path d="M 103.95276090670814 79.375362276772 l 3.5658494366970195 -18.605818703236636 a39.94443907385232,39.94443907385232 0 0,0 0.6741738553698635,0.13523293308885145 l -3.885589701534008 18.541681814070575" fill="#ffa90f" stroke="none" /><path d="M 104.307194497241 79.44645832069477 l 4.3424538221620645 -20.721795981453266 a42.171909075342796,42.171909075342796 0 0,0 0.7092055488711035,0.1550048638164153 l -4.698502095186695 20.64397761954098" fill="#ffc912" stroke="none" /><path d="M 106.40334571778207 80.00007090966166 l 11.578978917909645 -36.1652747646628 a58.97367313791164,58.97367313791164 0 0,0 0.9641273820812372,0.31785763948730195 l -12.1997891222333 35.96060340091626" fill="#5bff2a" stroke="none" /><path d="M 106.74666289553966 80.11325718540242 l 5.278656315736746 -15.559585854972688 a37.43060937634188,37.43060937634188 0 0,0 0.6083685990011166,0.21224785856091247 l -5.545706918801136 15.46641714323957" fill="#ff830c" stroke="none" /><path d="M 107.4271985657038 80.35727306442388 l 11.581126292824113 -30.62862792262084 a53.74500472793814,53.74500472793814 0 0,0 0.8625224471660782,0.3346453094102366 l -12.10663190498986 30.424739909320056" fill="#9aff23" stroke="none" /><path d="M 110.36928655335952 81.73862282372117 l 13.873739214443589 -24.433077756752834 a49.09725837974089,49.09725837974089 0 0,0 0.731322992770333,0.4236294810455049 l -14.29225893967925 24.190644118317277" fill="#d5ff1c" stroke="none" /><line stroke="#e1ed5e" stroke-width="0.3" x1="143.23703022742887" x2="145.7803849466894" y1="26.81831364943548" y2="22.513508569990506" /><path d="M 143.74570117128098 25.957352633546492 a86.0,86.0 0 0,1 28.547481713284135,27.462654790039103" fill="none" id="id50" stroke="none" /><text fill="#e1ed5e" style="font-size:6.75px; font-family:Arial;" text-anchor="middle"><textPath startOffset="19.985693538727396" xlink:href="#id50">February</textPath></text><path d="M 110.68208982089419 81.91981866633111 l 14.439270500218798 -24.439471428072867 a49.386269502385815,49.386269502385815 0 0,0 0.7281839259970309,0.43872266770765206 l -14.857816492433468 24.187302150906604" fill="#d2ff1c" stroke="none" /><path d="M 111.2981086023043 82.29822771554956 l 17.199444329255734 -26.947930636236894 a52.968920075764245,52.968920075764245 0 0,0 0.7643490186454092,0.497153863478148 l -17.660760373685424 26.64787784859922" fill="#a4ff21" stroke="none" /><path d="M 112.19680574252982 82.90503203632743 l 18.219887054423175 -25.536881710841538 a52.370314180598356,52.370314180598356 0 0,0 0.7293306507685517,0.5298897347611754 l -18.656763021545515 25.21947274126369" fill="#abff21" stroke="none" /><path d="M 112.48926042617603 83.11751280151076 l 18.818558911474025 -25.43818201205136 a52.64236501247768,52.64236501247768 0 0,0 0.7238421606003839,0.5451829085424621 l -19.253647225832793 25.11048251400305" fill="#a8ff21" stroke="none" /><path d="M 112.77801427241765 83.33499621200491 l 24.101006030979228 -31.432376599213885 a60.60874638738401,60.60874638738401 0 0,0 0.8224533139525204,0.6419378570782405 l -24.63849190009118 31.01286035291242" fill="#48ff2c" stroke="none" /><path d="M 113.06298171725822 83.55741782278167 l 29.857297308569876 -37.58185345518809 a68.99847822274751,68.99847822274751 0 0,0 0.9235827491731569,0.7468063522897258 l -30.499783456307522 37.06234100563423" fill="#38ff80" stroke="none" /><path d="M 114.16331599549186 84.49514656593476 l 21.729201296503973 -23.78737305930556 a53.217965578952466,53.217965578952466 0 0,0 0.671033225037325,0.623652250829421 l -22.135442405336146 23.4098162224015" fill="#a0ff22" stroke="none" /><path d="M 114.42810811169701 84.74124197986012 l 12.595973647492569 -13.321144562212577 a39.33334242781967,39.33334242781967 0 0,0 0.48795213272274435,0.469409565075312 l -12.82340902382773 13.102351910374963" fill="#ffa00e" stroke="none" /><path d="M 114.94478906791727 85.2469230424477 l 26.41157878860187 -26.072770426394644 a58.11281250207269,58.11281250207269 0 0,0 0.6966224592139256,0.7179306790628859 l -26.856465511518905 25.614275551781642" fill="#65ff29" stroke="none" /><path d="M 115.19652480421416 85.50635884689758 l 26.554456459598654 -25.326235300479784 a57.695467735947844,57.695467735947844 0 0,0 0.6792478570726256,0.7245742547378524 l -26.986471638641742 24.86539162886388" fill="#6aff28" stroke="none" /><path d="M 115.9244219780498 86.31012108654704 l 34.18307242759501 -29.386443229688734 a66.07821520736957,66.07821520736957 0 0,0 0.7340641089330232,0.8689003692379512 l -34.68384715001515 28.793683910821674" fill="#34ff5a" stroke="none" /><path d="M 116.15771136456269 86.58626213691792 l 28.231645368155164 -23.43722337078508 a57.692359416169346,57.692359416169346 0 0,0 0.6277519582030708,0.7695496745299132 l -28.63089581843464 22.947789526647068" fill="#6aff28" stroke="none" /><path d="M 116.38621287248628 86.86637796730983 l 21.70450912881204 -17.396259985217604 a48.815743347895065,48.815743347895065 0 0,0 0.5198781810728131,0.6601924955065985 l -22.00074139047882 17.020075095757967" fill="#d9ff1c" stroke="none" /><path d="M 116.60985879189232 87.15038557335679 l 49.829576375676965 -38.54884327992963 a84.0,84.0 0 0,0 0.874896239103546,1.1512608964758657 l -50.48574855500462 37.68539760757273" fill="#4dd2ff" stroke="none" /><line stroke="#e1ed5e" stroke-width="0.3" x1="172.23445277983987" x2="176.4835382374775" y1="55.19839476539836" y2="52.563006222186495" /><path d="M 173.08426987136738 54.67131705675599 a86.0,86.0 0 0,1 12.851231095245387,41.99856678651699" fill="none" id="id51" stroke="none" /><text fill="#e1ed5e" style="font-size:6.75px; font-family:Arial;" text-anchor="middle"><textPath startOffset="22.20632615414155" xlink:href="#id51">March</textPath></text><path d="M 117.84615892207809 88.93136811851018 l 26.674320409811983 -16.54407733307014 a52.38830776145661,52.38830776145661 0 0,0 0.4687112087093759,0.7704379878039707 l -26.955147416807584 16.082471572059085" fill="#abff21" stroke="none" /><path d="M 118.21658344932153 89.55222093294921 l 26.96418338274371 -15.46480060270802 a52.08419603560225,52.08419603560225 0 0,0 0.43934844462542344,0.7815518591717667 l -27.226389468661566 14.99836523360146" fill="#afff20" stroke="none" /><path d="M 118.73160827565052 90.50648371742162 l 32.70103542349784 -16.573473440276082 a57.66112027263211,57.66112027263211 0 0,0 0.44108007684226663,0.8891905198428918 l -32.98147551329352 16.00812333193424" fill="#6aff28" stroke="none" /><path d="M 118.89224826269711 90.83032412892265 l 33.25312545829124 -16.139973279668805 a57.96307739100303,57.96307739100303 0 0,0 0.42793810519957987,0.9013467873736363 l -33.52602175733257 15.565184076654628" fill="#67ff28" stroke="none" /><path d="M 119.04729006885535 91.15688171328212 l 33.68826738770052 -15.640510135934468 a58.14195628797001,58.14195628797001 0 0,0 0.41363207412576564,0.9113834463269793 l -33.95250177878963 15.058304680765426" fill="#65ff29" stroke="none" /><path d="M 119.196687751892 91.48605970444005 l 29.316796273858344 -13.002318752000521 a53.07077854826008,53.07077854826008 0 0,0 0.36317923396508295,0.8382677448529924 l -29.536266217666107 12.495751862560926" fill="#a2ff22" stroke="none" /><path d="M 119.34039704204932 91.81776055985345 l 30.442516421194313 -12.879154340898237 a54.0547942451827,54.0547942451827 0 0,0 0.3551613964601901,0.8600514926776185 l -30.6596995045407 12.353228277767316" fill="#96ff23" stroke="none" /><path d="M 119.97218684219823 93.5106431181261 l 30.47844627076548 -9.903047503948079 a53.046934907185594,53.046934907185594 0 0,0 0.2746934892410169,0.8708534276590862 l -30.644395243774703 9.376943909862572" fill="#a3ff22" stroke="none" /><path d="M 120.18372546131832 94.20196356495316 l 35.939629093229755 -10.324123727503638 a58.39310725387408,58.39310725387408 0 0,0 0.2692012042815371,0.9684599626080547 l -36.112017068077655 9.703952461476632" fill="#62ff29" stroke="none" /><path d="M 120.53481517161879 95.60439243477599 l 30.659811361647648 -6.562927284384011 a52.35436249187552,52.35436249187552 0 0,0 0.18104812695626082,0.8828549649723001 l -30.768238784518907 6.034196663248299" fill="#abff21" stroke="none" /><path d="M 120.6074358757038 95.95851677861258 l 31.081180870334602 -6.09557014982463 a52.673266010089435,52.673266010089435 0 0,0 0.16683448371259588,0.8912364830967059 l -31.18150107795706 5.559655589265361" fill="#a7ff21" stroke="none" /><path d="M 120.67395015179393 96.31383870115 l 36.45064512381122 -6.4991429497980615 a58.025509976554446,58.025509976554446 0 0,0 0.16685964437256431,0.9848150664697685 l -36.55711662970401 5.870742095012455" fill="#66ff29" stroke="none" /><line stroke="#e1ed5e" stroke-width="0.3" x1="184.98032266829074" x2="189.97916517819016" y1="98.17113171792111" y2="98.06355123074" /><path d="M 185.9800911702706 98.14961562048488 a86.0,86.0 0 0,1 -9.607161424134198,41.387399972396054" fill="none" id="id52" stroke="none" /><text fill="#e1ed5e" style="font-size:6.75px; font-family:Arial;" text-anchor="middle"><textPath startOffset="21.466115282336823" xlink:href="#id52">April</textPath></text><path d="M 120.76222939487914 103.15116336523771 l 30.41378492689869 4.616017048896482 a51.76208586840874,51.76208586840874 0 0,0 -0.1412815215513111,0.879760169563758 l -30.329821650986087 -5.138856448153445" fill="#b3ff20" stroke="none" /><path d="M 120.64145759157962 103.86396538481128 l 30.249995697683477 5.662629964379095 a51.77543854802646,51.77543854802646 0 0,0 -0.17152479666669448,0.8746012428547408 l -30.14804096804112 -6.18249493430178" fill="#b3ff20" stroke="none" /><path d="M 120.23288151984713 105.62410040840565 l 31.81466413402597 8.843469249496017 a54.020899477870984,54.020899477870984 0 0,0 -0.25674683475844723,0.8937694138145097 l -31.657724662381426 -9.38979613881511" fill="#96ff23" stroke="none" /><path d="M 119.41010516605496 108.01547362559984 l 16.947253755200272 6.998430165062553 a39.33541476537706,39.33541476537706 0 0,0 -0.26382640829032966,0.6236076961372073 l -16.824276365717633 -7.2891123868659236" fill="#ffa00e" stroke="none" /><path d="M 119.12269723197855 108.67885076344098 l 33.65411460756682 15.27394565272796 a57.9579875780829,57.9579875780829 0 0,0 -0.4201274698221888,0.9049171937026759 l -33.3862125209048 -15.850982913709467" fill="#67ff28" stroke="none" /><line stroke="#e1ed5e" stroke-width="0.3" x1="174.80103733775053" x2="179.2010983576182" y1="140.37084112569926" y2="142.7455964860345" /><path d="M 175.68104954172406 140.8457921977663 a86.0,86.0 0 0,1 -30.038265399797805,32.042727171017184" fill="none" id="id53" stroke="none" /><text fill="#e1ed5e" style="font-size:6.75px; font-family:Arial;" text-anchor="middle"><textPath startOffset="22.206326154141568" xlink:href="#id53">May</textPath></text><path d="M 117.94076556474637 110.91462005526583 l 31.645106375946565 19.251927207645316 a58.04118597930482,58.04118597930482 0 0,0 -0.5266142040316963,0.8490697745120425 l -31.309027532246905 -19.793793313522634" fill="#66ff29" stroke="none" /><path d="M 116.71984013943494 112.70617746262583 l 25.445671441345077 19.337339011204644 a52.959581898628485,52.959581898628485 0 0,0 -0.5578237370932383,0.7210623755894919 l -25.10904088703377 -19.77247938090739" fill="#a4ff21" stroke="none" /><path d="M 116.498646956653 112.99209946851258 l 24.9687845051099 19.66203245336017 a52.78105913684446,52.78105913684446 0 0,0 -0.5682310501720964,0.7089556046078193 l -24.62663554288295 -20.08891589154624" fill="#a6ff21" stroke="none" /><path d="M 115.32070863581623 114.36230785411682 l 18.253262584567626 17.11141323898856 a46.019633450884314,46.019633450884314 0 0,0 -0.5467427168541472,0.573257552772997 l -17.956013316334513 -17.423077908344066" fill="#ffff18" stroke="none" /><path d="M 115.07121518719521 114.62390073753431 l 23.681135679124438 22.978278342003257 a53.996931109054316,53.996931109054316 0 0,0 -0.6530012796845114,0.6614868487464474 l -23.282093774384393 -23.38250568473037" fill="#97ff23" stroke="none" /><line stroke="#e1ed5e" stroke-width="0.3" x1="143.8653032363475" x2="146.44561519142675" y1="172.8068346515853" y2="177.08958963109032" /><path d="M 144.38136562736335 173.6633856474863 a86.0,86.0 0 0,1 -40.68145358897372,12.25698825130547" fill="none" id="id54" stroke="none" /><text fill="#e1ed5e" style="font-size:6.75px; font-family:Arial;" text-anchor="middle"><textPath startOffset="21.466115282336833" xlink:href="#id54">June</textPath></text><path d="M 102.34483914955558 120.86867818915974 l 2.0679249796294434 18.40418816249746 a39.52000150221341,39.52000150221341 0 0,0 -0.6766716343949314,0.0701397816484224 l -1.7508207486289094 -18.437057312601638" fill="#ffa20f" stroke="none" /><line stroke="#e1ed5e" stroke-width="0.3" x1="102.19456741930631" x2="102.32365962044197" y1="184.97166512339345" y2="189.96999836594603" /><path d="M 102.22038585953345 185.97133177190398 a86.0,86.0 0 0,1 -42.740103519485714,-10.115201625700543" fill="none" id="id55" stroke="none" /><text fill="#e1ed5e" style="font-size:6.75px; font-family:Arial;" text-anchor="middle"><textPath startOffset="22.20632615414155" xlink:href="#id55">July</textPath></text><line stroke="#e1ed5e" stroke-width="0.3" x1="58.666819895761336" x2="56.23545636021788" y1="174.27360380694188" y2="178.64263932499728" /><path d="M 58.180547188652646 175.14741091055294 a86.0,86.0 0 0,1 -31.652253787137756,-30.449443065178592" fill="none" id="id56" stroke="none" /><text fill="#e1ed5e" style="font-size:6.75px; font-family:Arial;" text-anchor="middle"><textPath startOffset="22.20632615414155" xlink:href="#id56">August</textPath></text><line stroke="#e1ed5e" stroke-width="0.3" x1="26.63291911575756" x2="22.317208475507996" y1="142.92168965132927" y2="145.44649492493687" /><path d="M 25.769776987707644 143.4266507060508 a86.0,86.0 0 0,1 -11.730757126820373,-40.83630448921669" fill="none" id="id57" stroke="none" /><text fill="#e1ed5e" style="font-size:6.75px; font-family:Arial;" text-anchor="middle"><textPath startOffset="21.46611528233685" xlink:href="#id57">September</textPath></text><path d="M 81.87401531095188 110.60418214915194 l -7.034351331828279 4.115282237268281 a29.14970223701272,29.14970223701272 0 0,0 -0.24964360762282484,-0.4352746724127097 l 7.104146935603481 -3.9935877189972646" fill="#ff0000" stroke="none" /><line stroke="#e1ed5e" stroke-width="0.3" x1="15.007084014347285" x2="10.007500721073583" y1="101.09737516637583" y2="101.16192664675087" /><path d="M 14.007167355692545 101.11028546245083 a86.0,86.0 0 0,1 10.666146001902534,-42.60595125391555" fill="none" id="id58" stroke="none" /><text fill="#e1ed5e" style="font-size:6.75px; font-family:Arial;" text-anchor="middle"><textPath startOffset="22.20632615414155" xlink:href="#id58">October</textPath></text><path d="M 80.14247586403 93.16781622104843 l -22.223090569605294 -7.646081045561937 a44.501666107324844,44.501666107324844 0 0,0 0.2554542260985012,-0.7222034970165115 l 22.088183262696983 8.02748216900506" fill="#ffea16" stroke="none" /><path d="M 81.26839172434947 90.50648371742162 l -27.343909083464027 -13.858385371567532 a51.65524765960346,51.65524765960346 0 0,0 0.40879118518115204,-0.7896544541490798 l 27.10130846512276 14.327012547976947" fill="#b4ff20" stroke="none" /><line stroke="#e1ed5e" stroke-width="0.3" x1="26.266209847984243" x2="21.928928074336255" y1="57.711370442889674" y2="55.22380399835377" /><path d="M 25.398753493254645 57.213857153982495 a86.0,86.0 0 0,1 29.58750427330803,-30.492523968695096" fill="none" id="id59" stroke="none" /><text fill="#e1ed5e" style="font-size:6.75px; font-family:Arial;" text-anchor="middle"><textPath startOffset="21.46611528233685" xlink:href="#id59">November</textPath></text><path d="M 82.54541684631803 88.32363383020206 l -20.394071477223786 -13.64275755911505 a45.53656425082582,45.53656425082582 0 0,0 0.4414347809034096,-0.6477510707847813 l 20.156212230651636 13.991786653170248" fill="#fff817" stroke="none" /><path d="M 83.39014120810768 87.1503855733568 l -14.061093734969205 -10.877854843620755 a38.77757247271049,38.77757247271049 0 0,0 0.4129736118092027,-0.5244345488707953 l 13.871766042566032 11.118281786444598" fill="#ff970e" stroke="none" /><path d="M 83.84228863543731 86.58626213691792 l -24.25364990166884 -20.1347885640212 a52.522202398794406,52.522202398794406 0 0,0 0.58347011313904,-0.6906445780092979 l 23.903469175042677 20.549292091659616" fill="#a9ff21" stroke="none" /><line stroke="#e1ed5e" stroke-width="0.3" x1="56.762969772571076" x2="54.21961505331055" y1="26.818313649435495" y2="22.513508569990535" /><path d="M 56.25429882871897 25.957352633546506 a86.0,86.0 0 0,1 42.265352541879196,-11.944610805530505" fill="none" id="id60" stroke="none" /><text fill="#e1ed5e" style="font-size:6.75px; font-family:Arial;" text-anchor="middle"><textPath startOffset="22.20632615414155" xlink:href="#id60">December</textPath></text></svg>