<?xml version="1.0" encoding="utf-8" ?>
<svg baseProfile="full" height="200mm" version="1.1" viewBox="0,0,200,200" width="200mm" xmlns="http://www.w3.org/2000/svg" xmlns:ev="http://www.w3.org/2001/xml-events" xmlns:xlink="http://www.w3.org/1999/xlink"><defs /><rect fill="#1a1a1a" height="200" width="200" x="0" y="0" /><text alignment-baseline="middle" fill="#e1ed5e" style="dominant-baseline: central; font-size:9.0px; font-family:Arial;" text-anchor="middle" x="100.0" y="100.0">2022</text><line stroke="#e1ed5e" stroke-width="0.3" x1="100.0" x2="100.0" y1="15.0" y2="10.0" /><path d="M 100.0 14.0 a86.0,86.0 0 0,1 42.46469731375804,11.215312516191453" fill="none" id="id37" stroke="none" /><text fill="#e1ed5e" style="font-size:6.75px; font-family:Arial;" text-anchor="middle"><textPath startOffset="22.20632615414155" xlink:href="#id37">January</textPath></text><path d="M 110.36928655335952 81.73862282372117 l 7.976804564200879 -14.047971001547863 a37.15471758700181,37.15471758700181 0 0,0 0.5534341459781952,0.3205847790529304 l -8.217435442644403 13.908582065104882" fill="#ff840c" stroke="none" /><line stroke="#e1ed5e" stroke-width="0.3" x1="143.23703022742887" x2="145.7803849466894" y1="26.81831364943548" y2="22.513508569990506" /><path d="M 143.74570117128098 25.957352633546492 a86.0,86.0 0 0,1 28.547481713284135,27.462654790039103" fill="none" id="id38" stroke="none" /><text fill="#e1ed5e" style="font-size:6.75px; font-family:Arial;" text-anchor="middle"><textPath startOffset="19.985693538727396" xlink:href="#id38">February</textPath></text><path d="M 114.16331599549186 84.49514656593476 l 15.859538460949892 -17.36174067197384 a44.51499520210922,44.51499520210922 0 0,0 0.5612961801156543,0.5216636271499266 l -16.156042524860393 17.086172458749274" fill="#ffee16" stroke="none" /><path d="M 117.45458315368197 88.32363383020206 l 9.618594902267303 -6.434426713543915 a32.57234699729878,32.57234699729878 0 0,0 0.3077363446930128,0.46870356554451154 l -9.727927882318241 6.267905084021729" fill="#ff3e05" stroke="none" /><path d="M 117.65298651832404 88.62581576622439 l 16.624330387151968 -10.711399818401528 a40.77631024460419,40.77631024460419 0 0,0 0.37508846981765975,0.5932998815606725 l -16.806246453215586 10.423652289126649" fill="#ffba11" stroke="none" /><line stroke="#e1ed5e" stroke-width="0.3" x1="172.23445277983987" x2="176.4835382374775" y1="55.19839476539836" y2="52.563006222186495" /><path d="M 173.08426987136738 54.67131705675599 a86.0,86.0 0 0,1 12.851231095245387,41.99856678651699" fill="none" id="id39" stroke="none" /><text fill="#e1ed5e" style="font-size:6.75px; font-family:Arial;" text-anchor="middle"><textPath startOffset="22.20632615414155" xlink:href="#id39">March</textPath></text><path d="M 118.56541770881063 90.18545643968196 l 38.181895756430926 -20.1847265165046 a64.18889148960693,64.18889148960693 0 0,0 0.5079803934038838,0.9812564331445063 l -38.52368558299493 19.524497361099748" fill="#31ff43" stroke="none" /><path d="M 119.61058180528143 92.48833698450437 l 36.405221039722846 -13.944703689585674 a59.984546681235415,59.984546681235415 0 0,0 0.36103673625324856,0.9673989569865871 l -36.63986236447772 13.315981595569754" fill="#4dff2c" stroke="none" /><path d="M 120.45610955862082 95.25157060432595 l 41.512349270407775 -9.636165615666684 a63.61608651343858,63.61608651343858 0 0,0 0.2384258612176949,1.068816385225679 l -41.6720695186275 8.920171060891041" fill="#31ff3c" stroke="none" /><line stroke="#e1ed5e" stroke-width="0.3" x1="184.98032266829074" x2="189.97916517819016" y1="98.17113171792111" y2="98.06355123074" /><path d="M 185.9800911702706 98.14961562048488 a86.0,86.0 0 0,1 -9.607161424134198,41.387399972396054" fill="none" id="id40" stroke="none" /><text fill="#e1ed5e" style="font-size:6.75px; font-family:Arial;" text-anchor="middle"><textPath startOffset="21.466115282336823" xlink:href="#id40">April</textPath></text><path d="M 120.8583938346157 102.4346265915055 l 15.42013417808327 1.799863834781033 a36.52482038201552,36.52482038201552 0 0,0 -0.07826484724860279,0.6238478380414694 l -15.386867821587819 -2.0650294271098972" fill="#ff7b0b" stroke="none" /><path d="M 119.67450827220406 107.3425965602758 l 21.571019420987177 8.050381275650516 a44.02428104293271,44.02428104293271 0 0,0 -0.2710757797921113,0.7076933222480222 l -21.42924936160156 -8.420498164731681" fill="#ffe815" stroke="none" /><line stroke="#e1ed5e" stroke-width="0.3" x1="174.80103733775053" x2="179.2010983576182" y1="140.37084112569926" y2="142.7455964860345" /><path d="M 175.68104954172406 140.8457921977663 a86.0,86.0 0 0,1 -30.038265399797805,32.042727171017184" fill="none" id="id41" stroke="none" /><text fill="#e1ed5e" style="font-size:6.75px; font-family:Arial;" text-anchor="middle"><textPath startOffset="22.206326154141568" xlink:href="#id41">May</textPath></text><line stroke="#e1ed5e" stroke-width="0.3" x1="143.8653032363475" x2="146.44561519142675" y1="172.8068346515853" y2="177.08958963109032" /><path d="M 144.38136562736335 173.6633856474863 a86.0,86.0 0 0,1 -40.68145358897372,12.25698825130547" fill="none" id="id42" stroke="none" /><text fill="#e1ed5e" style="font-size:6.75px; font-family:Arial;" text-anchor="middle"><textPath startOffset="21.466115282336833" xlink:href="#id42">June</textPath></text><path d="M 109.89434966115114 118.52300852407294 l 7.495628653910523 14.032412255937661 a36.90889822199872,36.90889822199872 0 0,0 -0.5629645656299924,0.29451645338907784 l -7.252973185754035 -14.159358128271457" fill="#ff810b" stroke="none" /><line stroke="#e1ed5e" stroke-width="0.3" x1="102.19456741930631" x2="102.32365962044197" y1="184.97166512339345" y2="189.96999836594603" /><path d="M 102.22038585953345 185.97133177190398 a86.0,86.0 0 0,1 -42.740103519485714,-10.115201625700543" fill="none" id="id43" stroke="none" /><text fill="#e1ed5e" style="font-size:6.75px; font-family:Arial;" text-anchor="middle"><textPath startOffset="22.20632615414155" xlink:href="#id43">July</textPath></text><path d="M 92.40401165467489 119.57807347666478 l -6.476546748354302 16.69279919213828 a38.90517251111173,38.90517251111173 0 0,0 -0.6222584514018138,-0.2476094797636399 l 6.762926275797973 -16.578842867968575" fill="#ff9e0e" stroke="none" /><path d="M 91.7346041902142 119.30500536409082 l -3.051648866792132 7.127559175447466 a28.753364470067112,28.753364470067112 0 0,0 -0.45331640524142064,-0.19872059031669603 l 3.173885946691296 -7.073974031836317" fill="#ff0000" stroke="none" /><path d="M 91.40352486487194 119.15986991738527 l -3.170767112518097 7.067022757492698 a28.745745589466907,28.745745589466907 0 0,0 -0.4497094005555917,-0.2064395289418507 l 3.2919445088411083 -7.0113961582167725" fill="#ff0000" stroke="none" /><path d="M 90.42595943632237 118.69057910512821 l -3.5304364599080316 6.8921686189506834 a28.74376974538219,28.74376974538219 0 0,0 -0.4384233783395043,-0.22936239037871253 l 3.6485507407740316 -6.8303768096272535" fill="#ff0000" stroke="none" /><path d="M 90.10565033884886 118.52300852407294 l -8.204098913694107 15.358724859640088 a38.41257213336971,38.41257213336971 0 0,0 -0.5805368634562806,-0.31655498560152107 l 8.467258589019028 -15.2152292222788" fill="#ff970d" stroke="none" /><line stroke="#e1ed5e" stroke-width="0.3" x1="58.666819895761336" x2="56.23545636021788" y1="174.27360380694188" y2="178.64263932499728" /><path d="M 58.180547188652646 175.14741091055294 a86.0,86.0 0 0,1 -31.652253787137756,-30.449443065178592" fill="none" id="id44" stroke="none" /><text fill="#e1ed5e" style="font-size:6.75px; font-family:Arial;" text-anchor="middle"><textPath startOffset="22.20632615414155" xlink:href="#id44">August</textPath></text><path d="M 88.8546689885994 117.79835938074946 l -4.1213571894858605 6.581535920276522 a28.765449127591843,28.765449127591843 0 0,0 -0.41739789626050877,-0.2664030858914049 l 4.234036887793293 -6.509618405561313" fill="#ff0100" stroke="none" /><path d="M 87.65650970185807 116.9893568818739 l -4.6012034201070655 6.333013199845497 a28.828034817412494,28.828034817412494 0 0,0 -0.3989457233922376,-0.29513050872034774 l 4.709534113917868 -6.2528727423853825" fill="#ff0200" stroke="none" /><path d="M 86.79598089348748 116.32954008644616 l -9.70489942569218 12.002144417422459 a36.43491313482086,36.43491313482086 0 0,0 -0.4842891723718084,-0.3985370186229986 l 9.910058726608677 -11.83331227994228" fill="#ff7a0b" stroke="none" /><path d="M 86.51685102203217 116.09983520530335 l -5.06269899062273 6.045221303737787 a28.885151975759097,28.885151975759097 0 0,0 -0.3784429772785606,-0.32251731538184913 l 5.166007444478347 -5.957179598132987" fill="#ff0300" stroke="none" /><path d="M 85.97065885151581 115.62618273729859 l -11.86871553900512 13.219631335969593 a38.76583972698084,38.76583972698084 0 0,0 -0.4926961946869949,-0.45006629213254307 l 12.094511283158969 -13.013372277250474" fill="#ff9c0e" stroke="none" /><path d="M 85.18274418774928 114.88116024355367 l -5.645432144276148 5.669779981366265 a29.001081747659377,29.001081747659377 0 0,0 -0.35071888539756946,-0.355276379258534 l 5.74219165472925 -5.571763108127066" fill="#ff0500" stroke="none" /><path d="M 84.67929136418377 114.36230785411682 l -5.636470405375191 5.283875902669973 a28.725874913916662,28.725874913916662 0 0,0 -0.33507172588710793,-0.363654180980871 l 5.726588539258028 -5.186070466887758" fill="#ff0000" stroke="none" /><path d="M 84.43433777217949 114.09645910891817 l -8.527798173016656 7.722881074740392 a32.50505253244371,32.50505253244371 0 0,0 -0.3720143675185103,-0.41796208560428283 l 8.659471390183503 -7.574944819395245" fill="#ff3d05" stroke="none" /><path d="M 83.72743513129214 113.27417163493432 l -6.049794880037092 4.93505579739232 a28.80735511001636,28.80735511001636 0 0,0 -0.3101346186404557,-0.3869406221315575 l 6.133847410732409 -4.830187341682503" fill="#ff0100" stroke="none" /><path d="M 83.28015986056508 112.70617746262583 l -6.2792803794690695 4.771914693785763 a28.886731384341278,28.886731384341278 0 0,0 -0.297449057327109,-0.39848162071990123 l 6.360490703491264 -4.663120193556553" fill="#ff0300" stroke="none" /><path d="M 83.06392112726016 112.41649034213515 l -12.358271556280014 9.060323855188237 a36.323718354878906,36.323718354878906 0 0,0 -0.36534777774321336,-0.5074361090656733 l 12.512399126398835 -8.846254140671427" fill="#ff780b" stroke="none" /><path d="M 82.85270091963577 112.12312394758628 l -12.491168037039303 8.831243780926629 a36.2977170077011,36.2977170077011 0 0,0 -0.35630373600252807,-0.5132821060999965 l 12.641332680203965 -8.61492041263962" fill="#ff770b" stroke="none" /><path d="M 82.24976979558568 111.22182372390057 l -13.728575574784504 8.6793046234502 a37.2420477791199,37.2420477791199 0 0,0 -0.33790128538561015,-0.5448044621531308 l 13.87594149983807 -8.441703829931804" fill="#ff860c" stroke="none" /><path d="M 82.05923443525364 110.91462005526583 l -13.181626999235661 8.019303852317243 a36.429339733856686,36.429339733856686 0 0,0 -0.32130525735221627,-0.5385260927661888 l 13.317713132286109 -7.791215665664944" fill="#ff790b" stroke="none" /><line stroke="#e1ed5e" stroke-width="0.3" x1="26.63291911575756" x2="22.317208475507996" y1="142.92168965132927" y2="145.44649492493687" /><path d="M 25.769776987707644 143.4266507060508 a86.0,86.0 0 0,1 -11.730757126820373,-40.83630448921669" fill="none" id="id45" stroke="none" /><text fill="#e1ed5e" style="font-size:6.75px; font-family:Arial;" text-anchor="middle"><textPath startOffset="21.46611528233685" xlink:href="#id45">September</textPath></text><path d="M 81.87401531095188 110.60418214915194 l -13.685048570911125 8.006116647202893 a36.85491905235772,36.85491905235772 0 0,0 -0.3156325535015361,-0.5503319617770455 l 13.820833120565037 -7.769364839567541" fill="#ff800b" stroke="none" /><path d="M 81.02952815118164 109.00673069616217 l -13.940999068250544 6.61885614885227 a36.43245643895236,36.43245643895236 0 0,0 -0.26409260194694506,-0.5688319698128934 l 14.052866287037316 -6.377904111760549" fill="#ff7a0b" stroke="none" /><path d="M 80.87730276802145 108.67885076344099 l -8.427416803112498 3.824789561234969 a30.254748465577812,30.254748465577812 0 0,0 -0.21114776746871708,-0.4760824742592974 l 8.492005655312495 -3.679158750482976" fill="#ff1902" stroke="none" /><path d="M 80.73074385275274 108.34839909993369 l -14.281245476374329 6.187345062509206 a36.56397157794306,36.56397157794306 0 0,0 -0.2452380724031271,-0.5796703610055133 l 14.385634529969762 -5.940600175837535" fill="#ff7c0b" stroke="none" /><path d="M 80.58989483394504 108.01547362559985 l -32.05779349899909 13.238382589267522 a55.68366903319615,55.68366903319615 0 0,0 -0.35822467214007864,-0.8890842584601273 l 32.28092078539655 -12.684598962964587" fill="#7fff26" stroke="none" /><path d="M 80.32549172779594 107.34259656027581 l -23.503025229916403 8.771412724610224 a46.08644805753778,46.08644805753778 0 0,0 -0.27097896340708655,-0.7456177264624578 l 23.650528454328715 -8.365547201141649" fill="#faff18" stroke="none" /><path d="M 79.76711848015287 105.62410040840567 l -24.632039715217967 6.8469270917407545 a46.56594983824557,46.56594983824557 0 0,0 -0.20802101577610635,-0.7741235854202179 l 24.74624880733585 -6.421912573144998" fill="#f4ff19" stroke="none" /><path d="M 79.67330655649465 105.27499134158121 l -34.70681122443174 9.006783578037723 a56.856448454775204,56.856448454775204 0 0,0 -0.23768347065216502,-0.9494273154203258 l 34.85670600937896 -8.408028423220006" fill="#72ff27" stroke="none" /><path d="M 79.58551787078972 104.9243191809786 l -30.018295954522824 7.240921891309686 a51.87926556525218,51.87926556525218 0 0,0 -0.20193246701153097,-0.8699197828220062 l 30.13848898746491 -6.723133451139105" fill="#aeff20" stroke="none" /><path d="M 79.4281124754447 104.21870165774334 l -24.351474964694905 4.99378618901304 a45.85824276689203,45.85824276689203 0 0,0 -0.15192195347194465,-0.7746467677304856 l 24.433826851142516 -4.573875694214599" fill="#fdff18" stroke="none" /><path d="M 79.29508885075956 103.50808413554451 l -23.30245866528458 3.9481930143837114 a44.63456807149487,44.63456807149487 0 0,0 -0.12182738746188722,-0.7586192580185066 l 23.366967807107756 -3.546494526671991" fill="#fff016" stroke="none" /><path d="M 79.18660465613746 102.79330883721812 l -28.672011198986596 3.8479921675327775 a49.929073091203705,49.929073091203705 0 0,0 -0.10698728256228449,-0.8527939077476696 l 28.733999990795727 -3.3538805054976994" fill="#c7ff1e" stroke="none" /><path d="M 79.07016306316243 101.71520430193888 l -23.05189033667064 1.8891070003364754 a44.12916715648468,44.12916715648468 0 0,0 -0.05552592664529106,-0.7576071535208373 l 23.080992821980264 -1.4920267103188773" fill="#ffe915" stroke="none" /><path d="M 79.04373962182676 101.35467743843564 l -18.938640262688704 1.224252238497413 a39.97816873523364,39.97816873523364 0 0,0 -0.038481174998717435,-0.6871072297933403 l 18.956907788574952 -0.8980732923686353" fill="#ffae10" stroke="none" /><path d="M 79.0095281055655 100.63252640178507 l -16.175198049480063 0.4874230494604244 a37.18254038057835,37.18254038057835 0 0,0 -0.013771593728205593,-0.6399118461112283 l 16.181191705893276 -0.20892138755906717" fill="#ff850c" stroke="none" /><line stroke="#e1ed5e" stroke-width="0.3" x1="15.007084014347285" x2="10.007500721073583" y1="101.09737516637583" y2="101.16192664675087" /><path d="M 14.007167355692545 101.11028546245083 a86.0,86.0 0 0,1 10.666146001902534,-42.60595125391555" fill="none" id="id46" stroke="none" /><text fill="#e1ed5e" style="font-size:6.75px; font-family:Arial;" text-anchor="middle"><textPath startOffset="22.20632615414155" xlink:href="#id46">October</textPath></text><path d="M 79.00175016825051 100.2711162175752 l -41.5694430791496 0.5367185486709588 a62.572907821213875,62.572907821213875 0 0,0 -0.004635468681006691,-1.0771196713620916 l 41.572522845120105 0.17891060089480817" fill="#31ff2f" stroke="none" /><path d="M 79.00019446554 99.90962569577889 l -26.348773060899187 -0.11339400398500854 a47.34901705974829,47.34901705974829 0 0,0 0.010522739314333819,-0.8149977563607222 l 26.342917314467137 0.5669280184062027" fill="#e9ff1a" stroke="none" /><path d="M 79.00486145842228 99.54816195383935 l -25.330900825879937 -0.5451483310762024 a46.336766237099795,46.336766237099795 0 0,0 0.02402518422509011,-0.7972789006311317 l 25.317763947199204 0.9810973791323285" fill="#f7ff19" stroke="none" /><path d="M 79.01574976396665 99.18683210126434 l -15.442180021665559 -0.598405229582753 a36.453770175601775,36.453770175601775 0 0,0 0.029694879713801952,-0.6268119777203429 l 15.42959153371826 0.8641283139261049" fill="#ff7a0b" stroke="none" /><path d="M 79.16333360222342 97.38593545837743 l -23.094820305646927 -2.8973613006818804 a44.27585503170207,44.27585503170207 0 0,0 0.10137905976474161,-0.7553917498696672 l 23.041525246824353 3.2944713926162073" fill="#ffeb16" stroke="none" /><path d="M 79.26566170972629 96.67025291283419 l -25.105016670510174 -4.031638481132202 a46.42667832944641,46.42667832944641 0 0,0 0.13350574667212717,-0.7879584741859179 l 25.031899062317823 4.463182743633948" fill="#f5ff19" stroke="none" /><path d="M 80.02781315780177 93.51064311812611 l -17.288822432200735 -5.617478932895316 a39.178543689022234,39.178543689022234 0 0,0 0.21391989740305414,-0.6395932649966538 l 17.18956524102591 5.914245300814292" fill="#ffa20f" stroke="none" /><path d="M 80.803312248108 91.48605970444005 l -14.292795925411781 -6.3390108094863855 a36.63544285935812,36.63544285935812 0 0,0 0.26063096572426797,-0.574265785029743 l 14.181562642724161 6.584098603358199" fill="#ff7d0b" stroke="none" /><path d="M 81.26839172434947 90.50648371742162 l -12.516302944445611 -6.343487652111469 a35.0320231965896,35.0320231965896 0 0,0 0.27723770440901235,-0.5355350019292352 l 12.405255806876484 6.55799537630104" fill="#ff6409" stroke="none" /><line stroke="#e1ed5e" stroke-width="0.3" x1="26.266209847984243" x2="21.928928074336255" y1="57.711370442889674" y2="55.22380399835377" /><path d="M 25.398753493254645 57.213857153982495 a86.0,86.0 0 0,1 29.58750427330803,-30.492523968695096" fill="none" id="id47" stroke="none" /><text fill="#e1ed5e" style="font-size:6.75px; font-family:Arial;" text-anchor="middle"><textPath startOffset="21.46611528233685" xlink:href="#id47">November</textPath></text><path d="M 82.54541684631803 88.32363383020206 l -31.873819092550743 -21.322215470726462 a59.348105769708354,59.348105769708354 0 0,0 0.5753248735055472,-0.8442182605087487 l 31.502069753376457 21.867711754505628" fill="#55ff2b" stroke="none" /><path d="M 83.39014120810768 87.1503855733568 l -13.838653037329408 -10.705771671013647 a38.496338615820875,38.496338615820875 0 0,0 0.4099785258810036,-0.5206310938977206 l 13.652320430854433 10.942395158864414" fill="#ff980e" stroke="none" /><path d="M 83.84228863543731 86.58626213691792 l -10.745685716052401 -8.92080617743437 a34.96604970503556,34.96604970503556 0 0,0 0.3884384897364984,-0.45978865204138386 l 10.59053661282878 9.104453779104869" fill="#ff6309" stroke="none" /><path d="M 84.07557802195018 86.31012108654704 l -31.938949577844163 -27.45721966839721 a63.11882491303254,63.11882491303254 0 0,0 0.7153711376527265,-0.8177928747422036 l 31.46158657661359 28.00292809934236" fill="#30ff35" stroke="none" /><path d="M 88.09926311788651 82.69761687909137 l -12.046164013892879 -17.513818427406644 a42.25662022424488,42.25662022424488 0 0,0 0.6028516690204498,-0.40704813799447787 l 11.74290765046589 17.718578477699786" fill="#ffcf13" stroke="none" /><line stroke="#e1ed5e" stroke-width="0.3" x1="56.762969772571076" x2="54.21961505331055" y1="26.818313649435495" y2="22.513508569990535" /><path d="M 56.25429882871897 25.957352633546506 a86.0,86.0 0 0,1 42.265352541879196,-11.944610805530505" fill="none" id="id48" stroke="none" /><text fill="#e1ed5e" style="font-size:6.75px; font-family:Arial;" text-anchor="middle"><textPath startOffset="22.20632615414155" xlink:href="#id48">December</textPath></text><path d="M 95.33964822691252 79.52364482259891 l -1.779835119900236 -7.820125571367541 a29.02011078514423,29.02011078514423 0 0,0 0.4880315842687887,-0.10666480173217384 l 1.6449608114779264 7.8496038711955824" fill="#ff0500" stroke="none" /><path d="M 95.692805502759 79.44645832069477 l -6.7519966426867 -32.21991588791373 a53.919787947176815,53.919787947176815 0 0,0 0.9100468591851667,-0.18254683867618907 l 6.196383374034397 32.33136668266713" fill="#95ff23" stroke="none" /><path d="M 96.40284397218896 79.31037775812273 l -4.37832315712466 -25.182630798724794 a46.56041094374456,46.56041094374456 0 0,0 0.790797082562147,-0.1304882944336217 l 3.944196868423627 25.254265356098042" fill="#f4ff19" stroke="none" /><path d="M 96.75951476605007 79.25152402106235 l -6.3832247536004045 -40.87109673596649 a62.366557829431585,62.366557829431585 0 0,0 1.0621055077950121,-0.15652674292880725 l 5.678750265376744 40.974917963056264" fill="#33ff2f" stroke="none" /><path d="M 98.19473922651362 79.07773832637324 l -4.196862265420334 -48.63998144473984 a69.82070716222313,69.82070716222313 0 0,0 1.198288945091655,-0.09301028460377866 l 3.3589831309663447 48.70501699153208" fill="#39ff8c" stroke="none" /><path d="M 98.55514903715128 79.0497635885617 l -4.334552888546145 -62.8507092343149 a84.0,84.0 0 0,0 1.4433518046415081,-0.08706692247877434 l 3.2520390350650135 62.91600942617398" fill="#4dd2ff" stroke="none" /><path d="M 98.91598698831166 79.02799685794201 l -2.674702135445425 -51.7464836526871 a72.81556331770571,72.81556331770571 0 0,0 1.2522861065202409,-0.05392607400056861 l 1.78357519653586 51.784857453211856" fill="#3dffb1" stroke="none" /><path d="M 99.27714615592234 79.0124445844662 l -0.9286854515039416 -26.96373206939043 a47.97972023164267,47.97972023164267 0 0,0 0.8256472829770024,-0.02132403342254064 l 0.4644115333320601 26.975722894955332" fill="#e1ff1b" stroke="none" /></svg>